<?xml version="1.0" standalone="no"?>
<!DOCTYPE svg PUBLIC "-//W3C//DTD SVG 20010904//EN"
 "http://www.w3.org/TR/2001/REC-SVG-20010904/DTD/svg10.dtd">
<svg version="1.0" xmlns="http://www.w3.org/2000/svg"
 width="1017.000000pt" height="1017.000000pt" viewBox="0 0 1017.000000 1017.000000"
 preserveAspectRatio="xMidYMid meet">

<g transform="translate(0.000000,1017.000000) scale(0.100000,-0.100000)"
fill="#000000" stroke="none">
<path d="M2542 7627 l-2542 -2542 2540 -2540 2540 -2540 2543 2543 2542 2542
-2540 2540 -2540 2540 -2543 -2543z m4688 -402 l2135 -2135 -2143 -2142 -2142
-2143 -2135 2135 c-1174 1174 -2135 2139 -2135 2145 0 13 4262 4275 4275 4275
6 0 971 -961 2145 -2135z"/>
<path d="M5360 7130 c-145 -18 -250 -126 -250 -260 0 -100 63 -190 164 -236
37 -16 262 -61 804 -159 415 -74 762 -140 771 -145 40 -21 43 -35 16 -91 -42
-92 -30 -217 26 -270 16 -15 29 -32 29 -39 0 -6 -20 -73 -45 -149 -50 -153
-56 -212 -26 -278 22 -48 45 -63 98 -63 66 0 111 60 120 160 4 45 -1 79 -25
161 -48 159 -50 185 -20 217 43 45 52 73 52 152 0 62 -4 83 -27 125 -36 67
-35 94 18 421 25 153 43 279 40 282 -3 3 -29 -18 -58 -45 -29 -28 -67 -54 -84
-57 -21 -5 -215 29 -614 108 -895 176 -896 177 -989 166z m870 -245 c399 -76
727 -139 729 -141 5 -5 -22 -174 -28 -174 -3 0 -360 36 -792 79 -860 86 -857
85 -899 153 -15 24 -20 44 -17 74 5 51 30 86 81 115 53 30 92 39 151 34 28 -2
376 -65 775 -140z"/>
<path d="M4610 7094 c-14 -3 -194 -32 -400 -65 -206 -33 -496 -80 -644 -105
-168 -28 -281 -42 -300 -38 -19 4 -53 30 -89 66 -32 33 -61 57 -64 54 -3 -3
15 -144 41 -313 45 -300 46 -309 31 -366 -8 -31 -27 -81 -41 -109 -38 -74 -43
-153 -14 -212 12 -25 27 -46 32 -46 21 0 -1 -120 -47 -254 -48 -141 -55 -205
-34 -277 17 -56 51 -84 104 -84 56 0 89 30 112 102 18 58 18 62 -31 278 -13
61 -27 131 -31 157 -6 45 -5 46 23 53 86 19 116 146 67 292 -14 41 -23 83 -20
93 10 32 66 47 335 89 1038 160 1150 179 1202 204 182 84 225 292 86 411 -22
19 -61 42 -87 51 -46 17 -184 28 -231 19z m162 -115 c40 -9 63 -22 92 -50 36
-37 38 -42 33 -85 -6 -59 -31 -93 -88 -122 -38 -19 -77 -25 -255 -38 -115 -8
-447 -35 -739 -58 -291 -24 -531 -42 -533 -41 -6 5 -24 166 -19 171 4 5 770
129 1397 227 47 7 59 7 112 -4z"/>
<path d="M7621 6255 c-70 -74 -85 -112 -77 -197 8 -83 3 -95 -44 -114 -53 -21
-90 -78 -99 -151 -8 -68 -20 -92 -62 -127 -27 -23 -30 -30 -24 -64 10 -62 17
-67 62 -43 73 37 132 129 133 206 0 52 9 64 62 89 31 15 49 33 66 66 21 40 23
54 17 122 l-6 77 55 60 c31 34 56 64 55 68 0 9 -51 51 -71 58 -9 4 -35 -16
-67 -50z"/>
<path d="M6209 6227 c-8 -7 -28 -22 -43 -34 l-29 -23 37 -44 c49 -60 58 -89
57 -178 -2 -102 20 -147 84 -178 46 -22 48 -27 45 -92 -2 -42 26 -102 72 -153
29 -34 85 -71 94 -62 2 2 8 26 13 53 9 42 7 51 -9 64 -35 29 -60 83 -60 134 0
67 -30 117 -86 144 -24 12 -44 27 -45 34 0 7 -1 51 -2 98 -2 94 -21 144 -81
212 -26 29 -34 34 -47 25z"/>
<path d="M7290 6197 c0 -25 7 -61 16 -82 20 -50 12 -78 -31 -104 -47 -27 -65
-73 -65 -160 0 -85 -11 -115 -58 -163 l-36 -38 34 -35 c19 -19 38 -35 44 -35
5 0 29 20 52 45 52 53 74 119 74 217 l0 68 39 24 c27 18 44 38 56 70 18 47 17
74 -6 163 -13 49 -16 53 -49 59 -19 3 -43 8 -52 11 -15 4 -18 -3 -18 -40z"/>
<path d="M6479 6163 c-23 -4 -29 -13 -49 -79 -31 -105 -24 -135 47 -201 l55
-52 -7 -56 c-9 -74 13 -137 69 -200 l44 -50 41 39 40 39 -39 43 c-44 48 -44
47 -41 149 2 81 -16 120 -74 157 -44 29 -49 44 -30 98 8 23 15 60 15 81 0 42
-2 43 -71 32z"/>
<path d="M3736 5809 c-72 -80 -80 -101 -86 -214 l-5 -100 -48 -23 c-58 -28
-83 -66 -92 -141 -9 -81 -21 -93 -28 -29 -10 83 -10 84 43 134 68 65 76 96 53
204 l-18 85 -48 9 c-26 4 -51 5 -54 2 -6 -6 13 -144 24 -171 2 -7 -17 -32 -42
-56 -68 -64 -79 -89 -72 -174 6 -77 1 -93 -46 -142 l-30 -32 28 -41 c15 -22
33 -40 38 -40 6 0 26 14 44 32 l33 32 0 -27 c0 -30 6 -32 47 -16 66 25 132
117 133 189 2 54 12 70 60 94 25 12 55 38 68 56 20 30 23 45 21 120 -3 95 2
110 62 174 l38 42 -37 43 -38 44 -48 -54z"/>
<path d="M2517 5813 c-20 -16 -36 -31 -37 -34 0 -3 21 -29 46 -59 59 -70 64
-83 57 -173 -5 -65 -3 -80 15 -109 12 -19 44 -47 72 -62 48 -26 56 -38 51 -81
-4 -44 12 -88 46 -126 40 -44 117 -101 126 -93 3 3 17 -11 32 -30 15 -20 31
-36 36 -36 5 0 26 15 46 34 l37 33 -31 39 c-51 65 -54 78 -47 157 8 90 -6 124
-72 170 -24 17 -44 36 -44 41 0 6 7 33 15 60 8 27 15 64 15 83 l0 33 -55 0
c-54 0 -55 -1 -55 -29 0 -16 -7 -48 -15 -71 -8 -23 -15 -53 -15 -66 0 -27 -3
-28 -31 -13 -19 10 -20 17 -14 84 6 65 5 79 -18 127 -23 50 -100 148 -116 148
-4 0 -24 -12 -44 -27z m341 -522 c-4 -53 -23 -44 -26 13 -3 45 -2 48 13 36 11
-9 15 -25 13 -49z"/>
<path d="M6509 5393 c-19 -8 -86 -18 -153 -22 -114 -7 -120 -8 -143 -36 -25
-28 -27 -63 -8 -121 6 -20 4 -21 -117 -20 -107 1 -128 -2 -158 -20 -48 -28
-80 -78 -80 -125 l0 -39 -53 0 c-154 0 -238 -150 -144 -257 36 -41 81 -63 130
-63 33 0 35 -2 40 -42 10 -74 74 -129 164 -143 42 -6 43 -7 43 -45 0 -46 34
-91 91 -121 48 -24 149 -34 501 -50 195 -8 295 -8 410 0 192 15 259 29 379 79
102 42 177 62 237 62 73 0 82 7 82 61 l0 49 -67 0 c-91 0 -181 -21 -283 -65
-178 -76 -354 -94 -770 -76 -377 16 -470 29 -470 62 0 5 17 17 38 26 32 13 70
15 270 9 127 -3 232 -2 232 2 0 4 -22 29 -48 55 l-49 48 -292 6 c-238 5 -298
9 -324 22 -38 19 -41 43 -7 52 14 4 139 4 278 1 l252 -5 0 55 0 55 -356 7
c-202 4 -364 11 -375 17 -10 5 -23 18 -29 29 -8 16 -6 24 11 41 l22 22 364 -6
363 -7 0 53 0 54 -247 6 c-137 3 -256 9 -265 12 -10 4 -18 17 -18 30 0 42 35
45 401 38 l339 -6 0 -41 c0 -56 38 -133 88 -178 56 -51 126 -85 224 -108 89
-21 98 -19 98 32 0 14 3 33 6 41 4 11 -7 18 -44 26 -163 35 -262 111 -262 201
0 21 5 30 17 30 37 0 312 65 301 70 -7 4 -46 13 -85 19 -40 7 -75 16 -77 20
-3 4 24 19 60 33 l64 25 83 -47 c45 -26 108 -63 139 -83 65 -39 137 -53 319
-64 l106 -6 6 39 c13 75 19 70 -110 77 -182 9 -210 18 -350 101 -150 90 -208
115 -232 98 -127 -93 -334 -88 -465 13 -42 32 -44 32 -77 18z m57 -139 c25
-15 71 -35 102 -45 l57 -19 -165 3 c-170 3 -205 10 -239 51 -12 14 -7 16 40
17 30 0 74 4 99 8 25 5 49 9 53 10 5 0 29 -11 53 -25z"/>
<path d="M1738 4813 c-2 -142 -3 -258 -3 -259 0 -1 585 -9 1300 -18 715 -9
1348 -18 1408 -21 l107 -5 0 258 0 259 -287 6 c-157 4 -387 7 -511 7 l-224 0
-34 -30 c-144 -126 -453 -137 -573 -20 -22 22 -41 44 -41 49 0 13 -181 20
-692 26 l-447 5 -3 -257z"/>
</g>
</svg>
